<svg
  width="113"
  height="111"
  viewBox="0 0 113 111"
  fill="none"
  xmlns="http://www.w3.org/2000/svg"
>
  <g filter="url(#filter0_d_149_136)">
    <path
      d="M56.2112 102.995C85.0449 102.995 108.447 79.932 108.447 51.5108C108.447 23.0773 85.0449 0 56.2112 0C27.3776 0 4.00234 23.0773 4.00234 51.5108C4.00234 79.932 27.3776 102.995 56.2112 102.995ZM56.2112 92.9363C32.9865 92.9363 14.2026 74.4129 14.2026 51.5108C14.2026 28.6084 32.9865 10.0728 56.2112 10.0728C79.4356 10.0728 98.2197 28.6084 98.2197 51.5108C98.2197 74.4129 79.4356 92.9363 56.2112 92.9363Z"
      fill="#E6E6F6"
    />
    <path
      d="M35.9259 75.9789C38.4944 75.9789 40.6226 73.8923 40.6226 71.3332C40.6226 68.8004 38.4944 66.7015 35.9259 66.7015C33.3306 66.7015 31.2148 68.8004 31.2148 71.3332C31.2148 73.8923 33.3306 75.9789 35.9259 75.9789ZM27.4261 56.1301C29.9947 56.1301 32.1104 54.0435 32.1104 51.5108C32.1104 48.9516 29.9947 46.8527 27.4261 46.8527C24.8576 46.8527 22.7418 48.9516 22.7418 51.5108C22.7418 54.0435 24.8576 56.1301 27.4261 56.1301ZM35.9259 36.2811C38.4944 36.2811 40.6226 34.2087 40.6226 31.6495C40.6226 29.1289 38.4944 27.0302 35.9259 27.0302C33.3306 27.0302 31.2148 29.1289 31.2148 31.6495C31.2148 34.2087 33.3306 36.2811 35.9259 36.2811ZM56.1717 27.662C58.7669 27.662 60.8953 25.5756 60.8953 23.0164C60.8953 20.4835 58.7669 18.3848 56.1717 18.3848C53.6158 18.3848 51.4874 20.4835 51.4874 23.0164C51.4874 25.5756 53.6158 27.662 56.1717 27.662ZM84.8907 56.1301C87.4591 56.1301 89.5751 54.0435 89.5751 51.5108C89.5751 48.9516 87.4591 46.8527 84.8907 46.8527C82.2951 46.8527 80.1672 48.9516 80.1672 51.5108C80.1672 54.0435 82.2951 56.1301 84.8907 56.1301ZM76.3909 75.9789C78.9593 75.9789 81.0752 73.8923 81.0752 71.3332C81.0752 68.8004 78.9593 66.7015 76.3909 66.7015C73.7957 66.7015 71.6941 68.8004 71.6941 71.3332C71.6941 73.8923 73.7957 75.9789 76.3909 75.9789ZM48.4102 58.9902C51.7453 62.2912 56.7295 62.2912 60.052 58.9902C60.6258 58.449 61.4995 57.2147 62.2728 56.1129L78.0909 33.4825C78.9985 32.1432 78.8022 30.8284 77.9111 29.9233C76.9683 29.0199 75.635 28.8387 74.2767 29.7212L51.3406 45.3584C50.2108 46.095 48.9842 46.9948 48.4102 47.5365C45.1018 50.8111 45.1018 55.7402 48.4102 58.9902Z"
      fill="#E6E6F6"
    />
  </g>
  <defs>
    <filter
      id="filter0_d_149_136"
      x="0"
      y="0"
      width="112.449"
      height="111"
      filterUnits="userSpaceOnUse"
      color-interpolation-filters="sRGB"
    >
      <feFlood flood-opacity="0" result="BackgroundImageFix" />
      <feColorMatrix
        in="SourceAlpha"
        type="matrix"
        values="0 0 0 0 0 0 0 0 0 0 0 0 0 0 0 0 0 0 127 0"
        result="hardAlpha"
      />
      <feOffset dy="4" />
      <feGaussianBlur stdDeviation="2" />
      <feComposite in2="hardAlpha" operator="out" />
      <feColorMatrix
        type="matrix"
        values="0 0 0 0 0 0 0 0 0 0 0 0 0 0 0 0 0 0 0.25 0"
      />
      <feBlend mode="normal" in2="BackgroundImageFix" result="effect1_dropShadow_149_136" />
      <feBlend mode="normal" in="SourceGraphic" in2="effect1_dropShadow_149_136" result="shape" />
    </filter>
  </defs>
</svg>